<?xml version="1.0" standalone="no"?><!DOCTYPE svg PUBLIC "-//W3C//DTD SVG 1.1//EN" "http://www.w3.org/Graphics/SVG/1.1/DTD/svg11.dtd"><svg width="16" height="16" viewBox="0 0 16 16" version="1.1" xmlns="http://www.w3.org/2000/svg" xmlns:xlink="http://www.w3.org/1999/xlink"><defs><style type="text/css"><![CDATA[
@font-face { font-family: ifont; src: url("http://at.alicdn.com/t/font_1442373896_4754455.eot?#iefix") format("embedded-opentype"), url("http://at.alicdn.com/t/font_1442373896_4754455.woff") format("woff"), url("http://at.alicdn.com/t/font_1442373896_4754455.ttf") format("truetype"), url("http://at.alicdn.com/t/font_1442373896_4754455.svg#ifont") format("svg"); }

]]></style></defs><g class="transform-group"><g transform="scale(0.015625, 0.015625)"><path d="M866.166275 226.479151c-71.239508-108.081601-193.229886-179.384553-331.817268-179.384553-219.74682 0-397.882939 179.149193-397.882939 400.150586 0 220.996277 178.13612 400.150586 397.882939 400.150586 131.726114 0 248.453628-64.427358 320.868915-163.609265L633.329323 460.641285 866.166275 226.479151zM781.682116 687.003779c-64.355727 66.932412-153.891949 105.827257-247.333108 105.827257-189.478446 0-343.628268-155.030889-343.628268-345.585853S344.870562 101.659331 534.349007 101.659331c100.760868 0 195.172121 44.102451 260.087597 119.785154L594.96455 422.054455l-38.364773 38.58683 38.364773 38.581714L781.682116 687.003779zM425.831478 265.354554c-29.966499 0-54.254671 24.431435-54.254671 54.56985 0 30.134321 24.288173 54.564733 54.254671 54.564733 29.970592 0 54.262858-24.431435 54.262858-54.564733C480.094336 289.785989 455.80207 265.354554 425.831478 265.354554z" fill="#272636"></path></g></g></svg>