<?xml version="1.0" standalone="no"?><!DOCTYPE svg PUBLIC "-//W3C//DTD SVG 1.1//EN" "http://www.w3.org/Graphics/SVG/1.1/DTD/svg11.dtd"><svg width="16" height="16" viewBox="0 0 16 16" version="1.1" xmlns="http://www.w3.org/2000/svg" xmlns:xlink="http://www.w3.org/1999/xlink"><defs><style type="text/css"><![CDATA[
@font-face { font-family: ifont; src: url("http://at.alicdn.com/t/font_1442373896_4754455.eot?#iefix") format("embedded-opentype"), url("http://at.alicdn.com/t/font_1442373896_4754455.woff") format("woff"), url("http://at.alicdn.com/t/font_1442373896_4754455.ttf") format("truetype"), url("http://at.alicdn.com/t/font_1442373896_4754455.svg#ifont") format("svg"); }

]]></style></defs><g class="transform-group"><g transform="scale(0.015625, 0.015625)"><path d="M804.39542 228.761124c-47.37703-25.802666-86.86744-25.049512-138.116661-30.589692-36.631292-3.663436-87.488587 1.534959-130.671085-53.290717l8.387018 16.010649c0.001023 0.044002 0.004093 0.086981 0.00614 0.130983l-8.524141-16.320711c0.044002 0.060375 0.086981 0.119727 0.130983 0.179079l-6.850012-13.07683c0.010233 0.032746 0.023536 0.064468 0.033769 0.097214l-1.24434-2.38328 0 591.06166c-42.413995-29.319769-137.055492-38.375006-208.468962-19.23918-104.555288 28.016077-148.965753 105.835444-130.750903 173.814698 18.21485 67.979254 117.740588 100.377128 222.295875 72.361051 97.15576-26.03291 164.451446-95.067192 158.879544-159.252027L569.502645 231.108588c30.604018 35.387975 59.938114 62.22418 138.216945 65.294099 45.694715 1.791809 84.130096 1.796926 108.976994 15.34857 16.883529 9.209756 56.95313 38.898939 62.494333 76.296687C893.042389 338.184279 858.138438 258.030751 804.39542 228.761124zM397.674185 890.402259c-69.015863 15.520485-131.050732 1.416256-141.655254-41.727357-10.603499-43.143613 25.057699-80.891332 94.073562-96.411817s145.251152-2.935865 155.854651 40.20877C516.551666 835.615469 466.690048 874.882797 397.674185 890.402259z" fill="#272636"></path></g></g></svg>