<?xml version="1.0" standalone="no"?><!DOCTYPE svg PUBLIC "-//W3C//DTD SVG 1.1//EN" "http://www.w3.org/Graphics/SVG/1.1/DTD/svg11.dtd"><svg width="16" height="16" viewBox="0 0 16 16" version="1.1" xmlns="http://www.w3.org/2000/svg" xmlns:xlink="http://www.w3.org/1999/xlink"><defs><style type="text/css"><![CDATA[
@font-face { font-family: ifont; src: url("http://at.alicdn.com/t/font_1442373896_4754455.eot?#iefix") format("embedded-opentype"), url("http://at.alicdn.com/t/font_1442373896_4754455.woff") format("woff"), url("http://at.alicdn.com/t/font_1442373896_4754455.ttf") format("truetype"), url("http://at.alicdn.com/t/font_1442373896_4754455.svg#ifont") format("svg"); }

]]></style></defs><g class="transform-group"><g transform="scale(0.015625, 0.015625)"><path d="M749.548254 631.619378 749.575884 631.453602 749.820454 631.030977 749.923808 631.346155ZM905.989259 443.193915c7.457856-7.824199 8.543583-20.069081 1.968841-29.131481-3.601015-4.966105-8.837272-8.015557-14.432711-9.025561l-0.027629-0.085958-249.451352-36.443004-0.38374-0.51984 0.208754 0.63752-0.398066-0.166799-0.198521-0.223081L531.433608 142.359288l-0.060375 0.001023c-5.15644-9.499351-16.47523-14.292518-27.118638-10.818393-5.833869 1.90335-10.341532 5.950526-13.022595 10.964726L491.139903 142.506644 379.991454 368.456746l0 0.001023-1.535983 0.536212-248.03612 36.041868-0.019443 0.058328c-10.630105 1.954515-18.697851 11.228739-18.697851 22.424732 0 6.134721 2.447748 11.676947 6.384407 15.780405l-0.028653 0.085958 180.471304 175.915545 0.001023 0.345877-42.85811 247.768013 0.048095 0.035816c-1.440815 10.711969 4.870938 21.26021 15.514345 24.735357 5.830799 1.90335 11.861142 1.296529 16.98279-1.170662l0.072655 0.053212 223.307925-116.994598 0.613984 0.196475-0.487094-0.355087 0.008186-0.002047 0.724501 0.174985 222.687802 117.293403 0.048095-0.035816c9.744945 4.675486 21.727861 1.922792 28.314883-7.129374 3.609201-4.959965 4.89038-10.881838 4.123924-16.516162l0.071631-0.053212-42.423205-248.499677L906.008702 443.25122 905.989259 443.193915zM724.868155 619.191324l0.024559-0.148379 0.218988-0.378623 0.092098 0.282433L724.868155 619.191324zM674.789597 602.282213l38.431288 224.062102L512 720.555943 310.780139 826.344315l38.428218-224.062102L186.41876 443.600167l224.969774-32.69054 100.611465-203.857944 100.608396 203.857944 224.972844 32.69054L674.789597 602.282213z" fill="#272636"></path></g></g></svg>