<?xml version="1.0" standalone="no"?><!DOCTYPE svg PUBLIC "-//W3C//DTD SVG 1.1//EN" "http://www.w3.org/Graphics/SVG/1.1/DTD/svg11.dtd"><svg width="16" height="16" viewBox="0 0 16 16" version="1.1" xmlns="http://www.w3.org/2000/svg" xmlns:xlink="http://www.w3.org/1999/xlink"><defs><style type="text/css"><![CDATA[
@font-face { font-family: ifont; src: url("http://at.alicdn.com/t/font_1442373896_4754455.eot?#iefix") format("embedded-opentype"), url("http://at.alicdn.com/t/font_1442373896_4754455.woff") format("woff"), url("http://at.alicdn.com/t/font_1442373896_4754455.ttf") format("truetype"), url("http://at.alicdn.com/t/font_1442373896_4754455.svg#ifont") format("svg"); }

]]></style></defs><g class="transform-group"><g transform="scale(0.015625, 0.015625)"><path d="M809.28768 883.87584 207.872 883.87584c-18.8416 0-36.2496-7.43424-48.96768-20.8896-12.73856-13.49632-19.12832-31.27296-18.04288-50.0736l34.79552-597.21728c2.17088-37.84704 34.28352-67.50208 73.07264-67.50208l516.73088 0c38.76864 0 70.9632 29.61408 73.29792 67.44064l37.2736 597.21728c1.16736 18.82112-5.16096 36.63872-17.85856 50.13504C845.53728 876.46208 828.14976 883.87584 809.28768 883.87584zM248.77056 183.21408c-19.90656 0-37.00736 15.4624-38.0928 34.5088l-34.79552 597.1968c-0.53248 9.09312 2.49856 17.6128 8.54016 24.00256 6.0416 6.41024 14.37696 9.9328 23.49056 9.9328l601.41568 0c9.1136 0 17.38752-3.50208 23.38816-9.87136 6.00064-6.3488 8.99072-14.88896 8.41728-23.94112l-37.2736-597.21728c-1.16736-19.06688-18.35008-34.57024-38.31808-34.57024L248.77056 183.25504 248.77056 183.21408zM508.57984 437.12512c-90.19392 0-163.57376-73.37984-163.57376-163.57376 0-9.66656 7.84384-17.5104 17.5104-17.5104s17.5104 7.84384 17.5104 17.5104c0 70.88128 57.67168 128.53248 128.53248 128.53248s128.53248-57.67168 128.53248-128.53248c0-9.66656 7.82336-17.5104 17.5104-17.5104s17.5104 7.84384 17.5104 17.5104C672.1536 363.74528 598.77376 437.12512 508.57984 437.12512z" fill="#272636"></path></g></g></svg>